<svg width="45" height="43" viewBox="0 0 45 43" fill="none" xmlns="http://www.w3.org/2000/svg">
<path fill-rule="evenodd" clip-rule="evenodd" d="M36.4222 8.60113C36.2346 8.25689 35.8696 8.04655 35.477 8.05649C33.7163 8.10112 29.8694 9.05968 27.5312 12.5214C25.1333 11.1962 22.6305 11.4087 21.6443 11.6945C21.3005 11.7941 21.0315 12.0625 20.9315 12.4058C20.5459 13.7318 20.3074 16.9615 22.6339 19.2832C23.725 20.3723 24.8885 20.8442 25.9807 20.8626C26.6747 20.8743 27.299 20.7019 27.8115 20.437C28.0794 20.681 28.3517 20.8768 28.6061 21.0234C29.3952 21.478 30.6823 21.846 32.1014 21.5611C33.5674 21.2667 35.0443 20.3019 36.1944 18.3136C38.4752 14.3708 37.3098 10.2294 36.4222 8.60113ZM26.5588 18.7007C26.498 18.5627 26.4419 18.4195 26.3917 18.2711C26.018 17.1639 25.9973 15.8452 26.558 14.3706C25.1519 13.5812 23.6861 13.5078 22.8183 13.5953C22.6732 14.7188 22.8187 16.5157 24.1128 17.8072C24.8777 18.5706 25.5421 18.7675 26.0161 18.7754C26.214 18.7787 26.3965 18.7495 26.5588 18.7007ZM28.9746 14.1533C30.5301 11.4643 33.2505 10.4538 34.8633 10.2067C35.4552 11.7242 35.9386 14.5808 34.3831 17.2699C33.4936 18.8077 32.4922 19.3534 31.689 19.5147C30.839 19.6853 30.0662 19.4542 29.6518 19.2155C29.2377 18.9768 28.6506 18.4245 28.3739 17.6044C28.1122 16.8296 28.0851 15.6912 28.9746 14.1533Z" fill="white"/>
<path fill-rule="evenodd" clip-rule="evenodd" d="M29.8396 25.2473C30.2956 25.5496 30.579 25.9829 30.7555 26.4608C31.1169 27.4398 30.9669 28.371 30.4372 29.1348C30.4336 29.14 30.4298 29.1452 30.4263 29.1505C31.284 28.8845 32.1041 28.5645 32.8774 28.2351C33.325 28.0445 33.7755 27.8418 34.2122 27.6452C35.0352 27.2747 35.8097 26.9258 36.4257 26.7215C36.9021 26.5633 37.4645 26.423 38.0023 26.4908C38.2928 26.5276 38.6005 26.6278 38.878 26.8363C39.157 27.0461 39.3461 27.321 39.466 27.6145C39.7287 28.2579 39.5412 28.9054 39.3287 29.36C39.1024 29.8447 38.7442 30.3368 38.3277 30.8094C37.489 31.7612 36.2726 32.7937 34.9074 33.7418C33.537 34.6937 31.9778 35.5882 30.4328 36.2482C28.9043 36.9014 27.3116 37.3592 25.8972 37.3592C24.6482 37.3594 21.514 37.0523 18.4496 36.6067C16.906 36.3823 15.3527 36.1186 14.0344 35.8337C12.7562 35.5573 11.579 35.2371 10.8716 34.8659C10.5278 34.6856 10.3125 34.3299 10.3125 33.942V26.8217C10.3125 26.529 10.4356 26.2499 10.6518 26.052C10.868 25.8543 11.1574 25.7564 11.4496 25.7819C18.1142 26.3647 22.3799 25.7214 25.1148 25.2538C25.2771 25.226 25.4373 25.1983 25.5946 25.1709C26.7094 24.9772 27.6905 24.8066 28.4406 24.8386C28.9026 24.8582 29.3975 24.9544 29.8396 25.2473ZM12.404 27.9512V33.2477C12.8975 33.4174 13.5998 33.6038 14.4772 33.7936C15.7322 34.0648 17.2345 34.3205 18.7511 34.5411C21.807 34.9853 24.8117 35.2719 25.897 35.2717C26.906 35.2717 28.1982 34.9325 29.6097 34.3292C31.0046 33.7333 32.4402 32.9125 33.7127 32.0286C34.9902 31.1411 36.0643 30.2171 36.7572 29.4308C37.0404 29.1093 37.237 28.8365 37.3593 28.6202C37.282 28.6405 37.1912 28.6672 37.086 28.7021C36.5643 28.8753 35.9649 29.1461 35.2299 29.478C34.7757 29.6832 34.2695 29.9118 33.6981 30.1551C30.868 31.3604 26.9342 32.681 22.6827 31.3797C22.1645 31.2212 21.8537 30.6937 21.9666 30.1645C22.0793 29.6354 22.5788 29.2801 23.1167 29.3458C24.5714 29.5241 26.3191 29.3051 27.541 28.7766C28.1542 28.5113 28.5336 28.2119 28.7175 27.9468C28.8641 27.7352 28.916 27.5158 28.793 27.1826C28.7587 27.0899 28.7286 27.0404 28.711 27.0162C28.6955 26.9949 28.6867 26.9891 28.6828 26.9864C28.6742 26.9807 28.6012 26.9348 28.3515 26.9242C27.8439 26.9025 27.1166 27.0277 25.9146 27.2346C25.7726 27.259 25.6237 27.2847 25.4679 27.3114C22.7886 27.7694 18.6661 28.391 12.404 27.9512ZM37.5024 28.2804L37.5022 28.2835L37.5024 28.2804Z" fill="white"/>
</svg>
